{"title":"Pacific Rim (2013) 60fps 1080p BluRay DTS.x264-zologne","uid":9694621,"size":18295746569,"categoryP":"video","categoryS":"hd___movies","magnet":"?xt=urn:btih:fc60d01e7c1d861cdf10b38e5cb62479ca55dcea&amp;dn=Pacific+Rim+%282013%29+60fps+1080p+BluRay+DTS.x264-zologne&amp;tr=udp%3A%2F%2Ftracker.openbittorrent.com%3A80&amp;tr=udp%3A%2F%2Fopen.demonii.com%3A1337&amp;tr=udp%3A%2F%2Ftracker.coppersurfer.tk%3A6969&amp;tr=udp%3A%2F%2Fexodus.desync.com%3A6969","seeders":5,"leechers":3,"uploader":"yTSa6","files":-1,"time":1393917712,"description":" &lt;a href=&quot;http://www.imdb.com/title/tt1663662&quot; rel=&quot;nofollow&quot; target=&quot;_NEW&quot;&gt;http://www.imdb.com/title/tt1663662&lt;/a&gt;\n\nGeneral\nFormat                                   : Matroska\nFile size                                : 16.9 GiB\nDuration                                 : 2h 11mn\nOverall bit rate mode                    : Variable\nOverall bit rate                         : 18.4 Mbps\n                  \n\nVideo\nFormat                                   : AVC\nFormat profile                           : &lt;a class=&quot;__cf_email__&quot; href=&quot;/cdn-cgi/l/email-protection&quot; data-cfemail=&quot;3a72535d527a760e1408&quot;&gt;[email&amp;#160;protected]&lt;/a&gt;&lt;script cf-hash='f9e31' type=&quot;text/javascript&quot;&gt;\n/* &lt;![CDATA[ */!function(){try{var t=&quot;currentScript&quot;in document?document.currentScript:function(){for(var t=document.getElementsByTagName(&quot;script&quot;),e=t.length;e--;)if(t[e].getAttribute(&quot;cf-hash&quot;))return t[e]}();if(t&amp;&amp;t.previousSibling){var e,r,n,i,c=t.previousSibling,a=c.getAttribute(&quot;data-cfemail&quot;);if(a){for(e=&quot;&quot;,r=parseInt(a.substr(0,2),16),n=2;a.length-n;n+=2)i=parseInt(a.substr(n,2),16)^r,e+=String.fromCharCode(i);e=document.createTextNode(e),c.parentNode.replaceChild(e,c)}}}catch(u){}}();/* ]]&gt; */&lt;/script&gt;\nDuration                                 : 2h 11mn\nBit rate                                 : 16.5 Mbps\nWidth                                    : 1 920 pixels\nHeight                                   : 1 080 pixels\nDisplay aspect ratio                     : 16:9\nFrame rate mode                          : Constant\nFrame rate                               : 59.880 fps\nOriginal frame rate                      : 59.940 fps\nScan type                                : Progressive\nWriting library                          : x264 core 138 r2358 9e941d1\nLanguage                                 : English\n\n\nAudio #1\nID                                       : 2\nFormat                                   : DTS\nFormat/Info                              : Digital Theater Systems\nCodec ID                                 : A_DTS\nDuration                                 : 2h 11mn\nBit rate mode                            : Constant\nBit rate                                 : 1 509 Kbps\nChannel(s)                               : 6 channels\nChannel positions                        : Front: L C R, Side: L R, LFE\nSampling rate                            : 48.0 KHz\nBit depth                                : 24 bits\nStream size                              : 1.38 GiB (8%)\nLanguage                                 : English\n\n\nAudio #2\nID                                       : 3\nFormat                                   : Vorbis\nFormat settings, Floor                   : 1\nCodec ID                                 : A_VORBIS\nDuration                                 : 2h 11mn\nBit rate mode                            : Variable\nBit rate                                 : 64.0 Kbps\nChannel(s)                               : 2 channels\nSampling rate                            : 48.0 KHz\nStream size                              : 60.1 MiB (0%)\nWriting library                          : aoTuV 20110424 (UTC 2011-04-24)\nLanguage                                 : English\n","torrent":{"xt":"urn:btih:fc60d01e7c1d861cdf10b38e5cb62479ca55dcea","amp;dn":"Pacific+Rim+%282013%29+60fps+1080p+BluRay+DTS.x264-zologne","amp;tr":["udp%3A%2F%2Ftracker.openbittorrent.com%3A80","udp%3A%2F%2Fopen.demonii.com%3A1337","udp%3A%2F%2Ftracker.coppersurfer.tk%3A6969","udp%3A%2F%2Fexodus.desync.com%3A6969"],"infoHash":"fc60d01e7c1d861cdf10b38e5cb62479ca55dcea","infoHashBuffer":{"type":"Buffer","data":[252,96,208,30,124,29,134,28,223,16,179,142,92,182,36,121,202,85,220,234]},"announce":[],"urlList":[]}}